<?xml version="1.0" encoding="UTF-8"?>
<svg version="1.1" xmlns="http://www.w3.org/2000/svg" width="607" height="607">
<path d="M0 0 C27.14568241 -0.55936558 51.96069811 8.28297707 73.03515625 25.12109375 C74.36933594 26.18070313 74.36933594 26.18070313 75.73046875 27.26171875 C97.59768033 45.77001695 110.11892036 73.70761968 112.86160278 101.84240723 C113.40063145 108.9196347 113.2362391 116.02959746 113.16015625 123.12109375 C113.15008881 124.78254658 113.14096972 126.44400544 113.1328125 128.10546875 C113.11113736 132.11083056 113.07682368 136.1158921 113.03515625 140.12109375 C113.77524083 140.11832837 114.51532541 140.11556299 115.2778368 140.11271381 C133.36852886 140.04617347 151.45919618 139.99667768 169.54998493 139.96565723 C178.2989119 139.95025345 187.04775668 139.92928965 195.79663086 139.89477539 C203.43096468 139.8646726 211.06523891 139.84547174 218.69963044 139.83882827 C222.73399027 139.83495098 226.76817981 139.82597807 230.80248451 139.80390358 C269.78372127 139.59923933 302.28760224 145.43053172 330.91015625 173.62109375 C335.9502491 178.73154792 340.27243937 183.98722439 344.03515625 190.12109375 C344.67839844 191.10851562 345.32164062 192.0959375 345.984375 193.11328125 C350.26603589 200.04549412 353.30905146 207.02199736 355.91015625 214.74609375 C356.19632813 215.59212158 356.4825 216.43814941 356.77734375 217.30981445 C360.16086812 227.87824468 361.40831666 238.30056868 361.34765625 249.37109375 C361.33919678 251.00679321 361.33919678 251.00679321 361.33056641 252.67553711 C360.89973166 281.5137381 348.51236011 307.15441409 328.78515625 327.80859375 C303.3566062 352.34553966 272.18330712 359.3818001 237.78515625 359.18359375 C236.25000147 359.17856418 234.71484509 359.17400387 233.1796875 359.16992188 C229.46480955 359.15904214 225.74999366 359.14185952 222.03515625 359.12109375 C222.03295641 360.2789869 222.03295641 360.2789869 222.03071213 361.46027184 C221.99352002 380.31850503 221.93434243 399.17655487 221.85125351 418.03464317 C221.81159075 427.15460852 221.77913387 436.27448918 221.76416016 445.39453125 C221.75107701 453.35160472 221.72394446 461.30849082 221.68054318 469.2654587 C221.65807681 473.4713528 221.64223654 477.67701712 221.6432724 481.88297653 C221.64255804 518.80937886 214.65061067 549.40095617 188.72265625 576.87109375 C176.58923837 588.4872789 161.69535531 597.10640311 145.84765625 602.49609375 C145.14801758 602.73489258 144.44837891 602.97369141 143.72753906 603.21972656 C116.31677959 611.98457376 86.35223413 607.99533873 61.03515625 595.12109375 C52.08004289 590.26861173 44.33092236 584.2348158 37.03515625 577.12109375 C36.16890625 576.29609375 35.30265625 575.47109375 34.41015625 574.62109375 C33.62640625 573.79609375 32.84265625 572.97109375 32.03515625 572.12109375 C31.431875 571.48945312 30.82859375 570.8578125 30.20703125 570.20703125 C17.38122972 556.35320746 9.27769194 539.39828921 5.03515625 521.12109375 C4.85862015 520.36543121 4.68208405 519.60976868 4.50019836 518.83120728 C2.42781881 508.41549797 2.81587121 497.9381339 2.91015625 487.37109375 C2.92020749 485.40234831 2.92932954 483.43359789 2.9375 481.46484375 C2.9593405 476.68346904 2.99375193 471.90233743 3.03515625 467.12109375 C2.26322748 467.12478092 1.49129871 467.12846809 0.69597816 467.132267 C-18.16210477 467.22093862 -37.02014561 467.28695836 -55.87839317 467.32834244 C-64.99843245 467.34889185 -74.11833182 467.37686507 -83.23828125 467.42285156 C-91.19525811 467.46295445 -99.15213357 467.4885818 -107.1092087 467.49744773 C-111.31517585 467.50262316 -115.52085311 467.51462437 -119.72672653 467.54401398 C-153.48887605 467.77060643 -153.48887605 467.77060643 -167.96484375 463.12109375 C-168.66725567 462.89708138 -169.36966759 462.673069 -170.09336472 462.44226837 C-197.18886525 453.70637397 -219.86102766 434.42587199 -233.18237305 409.26879883 C-246.73863723 382.71083033 -249.76293301 352.90462443 -240.77734375 324.30859375 C-236.01580276 311.31740432 -229.83567298 299.79047599 -220.96484375 289.12109375 C-220.25585938 288.26 -219.546875 287.39890625 -218.81640625 286.51171875 C-200.83832702 265.61301293 -174.54257088 251.55505071 -146.96484375 249.12109375 C-139.86608322 248.80646491 -132.75554511 248.93078545 -125.65234375 248.99609375 C-123.73633283 249.00614815 -121.82031677 249.01526963 -119.90429688 249.0234375 C-115.25768341 249.04524572 -110.61132176 249.07963866 -105.96484375 249.12109375 C-105.96760913 248.38100917 -105.97037451 247.64092459 -105.97322369 246.8784132 C-106.03976403 228.78772114 -106.08925982 210.69705382 -106.12028027 192.60626507 C-106.13568405 183.8573381 -106.15664785 175.10849332 -106.19116211 166.35961914 C-106.2212649 158.72528532 -106.24046576 151.09101109 -106.24710923 143.45661956 C-106.25098652 139.42225973 -106.25995943 135.38807019 -106.28203392 131.35376549 C-106.45852238 97.76002184 -103.40108949 66.89866183 -80.96484375 40.12109375 C-80.12050781 39.11304688 -79.27617187 38.105 -78.40625 37.06640625 C-60.37072086 16.20145006 -35.01055513 3.60057014 -7.71484375 0.37109375 C-5.14403272 0.19334796 -2.57485896 0.10516552 0 0 Z M4.03515625 141.12109375 C4.03515625 177.09109375 4.03515625 213.06109375 4.03515625 250.12109375 C-31.93484375 250.12109375 -67.90484375 250.12109375 -104.96484375 250.12109375 C-104.96484375 285.76109375 -104.96484375 321.40109375 -104.96484375 358.12109375 C-68.99484375 358.12109375 -33.02484375 358.12109375 4.03515625 358.12109375 C4.03515625 394.09109375 4.03515625 430.06109375 4.03515625 467.12109375 C39.67515625 467.12109375 75.31515625 467.12109375 112.03515625 467.12109375 C112.03515625 431.15109375 112.03515625 395.18109375 112.03515625 358.12109375 C148.00515625 358.12109375 183.97515625 358.12109375 221.03515625 358.12109375 C221.03515625 322.48109375 221.03515625 286.84109375 221.03515625 250.12109375 C185.06515625 250.12109375 149.09515625 250.12109375 112.03515625 250.12109375 C112.03515625 214.15109375 112.03515625 178.18109375 112.03515625 141.12109375 C76.39515625 141.12109375 40.75515625 141.12109375 4.03515625 141.12109375 Z " fill="#297CC8" transform="translate(245.96484375,-0.12109375)"/>
<path d="M0 0 C1.21079727 -0.00571014 2.42159454 -0.01142029 3.66908264 -0.01730347 C5.02374257 -0.01854907 6.37840262 -0.01967412 7.73306274 -0.02069092 C9.15064117 -0.02531744 10.56821835 -0.03034187 11.98579407 -0.03573608 C15.85258926 -0.0488971 19.71936705 -0.05531476 23.58618116 -0.05974674 C26.00836006 -0.06267767 28.43053421 -0.06678301 30.85271072 -0.07125092 C38.44798555 -0.08494907 46.04324953 -0.09459861 53.63853586 -0.09845281 C62.37100275 -0.10290895 71.10331119 -0.12033214 79.83572996 -0.1494534 C86.60117476 -0.17121983 93.36657555 -0.18116534 100.13205492 -0.18249393 C104.16303316 -0.18353335 108.19386296 -0.18925162 112.22480392 -0.20731354 C151.18940947 -0.37164377 183.69147277 5.46181337 212.3019104 33.64044189 C217.34200325 38.75089607 221.66419352 44.00657253 225.4269104 50.14044189 C226.07015259 51.12786377 226.71339478 52.11528564 227.37612915 53.13262939 C231.65779004 60.06484227 234.70080561 67.04134551 237.3019104 74.76544189 C237.58808228 75.61146973 237.87425415 76.45749756 238.1690979 77.3291626 C241.55262227 87.89759282 242.80007081 98.31991682 242.7394104 109.39044189 C242.73377075 110.4809082 242.7281311 111.57137451 242.72232056 112.69488525 C242.29148581 141.53308625 229.90411426 167.17376223 210.1769104 187.82794189 C185.51016805 211.62979146 154.99250779 219.36694002 121.47744751 219.27081299 C119.20467743 219.26535854 116.9320971 219.27084133 114.65933228 219.27716064 C113.2133683 219.27650138 111.76740444 219.27522337 110.32144165 219.27325439 C109.02053589 219.27212646 107.71963013 219.27099854 106.37930298 219.26983643 C103.4269104 219.14044189 103.4269104 219.14044189 102.4269104 218.14044189 C102.3314411 216.73632873 102.30502511 215.32744381 102.30665588 213.92008972 C102.30458964 212.55778559 102.30458964 212.55778559 102.30248165 211.16796017 C102.30787881 209.65568262 102.30787881 209.65568262 102.31338501 208.112854 C102.31326447 207.04221742 102.31314394 205.97158083 102.31301975 204.86850071 C102.31376925 201.38490826 102.32139914 197.90136858 102.32925415 194.41778564 C102.33072346 192.27427191 102.33174424 190.13075782 102.33230591 187.98724365 C102.33756011 180.01747095 102.35152117 172.04770591 102.3644104 164.07794189 C102.3850354 146.27856689 102.4056604 128.47919189 102.4269104 110.14044189 C66.4569104 110.14044189 30.4869104 110.14044189 -6.5730896 110.14044189 C-6.5937146 92.17606689 -6.6143396 74.21169189 -6.6355896 55.70294189 C-6.6446936 50.02147949 -6.65379761 44.34001709 -6.66317749 38.48638916 C-6.66769409 31.57196045 -6.66769409 31.57196045 -6.66853333 28.33952332 C-6.67007332 26.07206527 -6.67359937 23.80460806 -6.67866516 21.53715515 C-6.6859391 18.11136441 -6.68699714 14.68562391 -6.68661499 11.25982666 C-6.6902131 10.24227326 -6.69381121 9.22471987 -6.69751835 8.17633152 C-6.69614085 7.25973224 -6.69476336 6.34313295 -6.69334412 5.39875793 C-6.69426591 4.59587625 -6.6951877 3.79299456 -6.69613743 2.96578312 C-6.42672076 -1.03085262 -3.31890702 0.00932762 0 0 Z " fill="#0CB8FB" transform="translate(364.5730895996094,139.85955810546875)"/>
<path d="M0 0 C35.97 0 71.94 0 109 0 C109.16121214 37.8938084 109.16121214 37.8938084 109.1953125 53.86328125 C109.21897892 64.8576612 109.24668831 75.85191788 109.30175781 86.84619141 C109.34185846 94.85590598 109.36748753 102.86551982 109.37635398 110.875332 C109.38152978 115.10924396 109.39353346 119.34286798 109.42292023 123.57668686 C109.66989346 160.60798445 102.68623317 191.20487377 76.6875 218.75 C64.55408212 230.36618515 49.66019906 238.98530936 33.8125 244.375 C33.11286133 244.61379883 32.41322266 244.85259766 31.69238281 245.09863281 C4.28162334 253.86348001 -25.68292212 249.87424498 -51 237 C-59.95511336 232.14751798 -67.70423389 226.11372205 -75 219 C-75.86625 218.175 -76.7325 217.35 -77.625 216.5 C-78.40875 215.675 -79.1925 214.85 -80 214 C-80.60328125 213.36835937 -81.2065625 212.73671875 -81.828125 212.0859375 C-109.43753894 182.26355527 -109 148.70507988 -109 109 C-73.03 109 -37.06 109 0 109 C0 73.03 0 37.06 0 0 Z " fill="#464196" transform="translate(358,358)"/>
</svg>
